<?xml version="1.0" encoding="utf-8"?>
<!-- Generator: Adobe Illustrator 23.1.0, SVG Export Plug-In . SVG Version: 6.00 Build 0)  -->
<svg version="1.1" id="Layer_1" xmlns="http://www.w3.org/2000/svg" xmlns:xlink="http://www.w3.org/1999/xlink" x="0px" y="0px"
	 viewBox="0 0 640 640" style="enable-background:new 0 0 640 640;" xml:space="preserve">
<style type="text/css">
	.st0{fill:#F0B37C;}
	.st1{fill:#78B155;}
	.st2{fill:#FECB4D;}
	.st3{fill:#FE5757;}
	.st4{fill:#FE5857;}
	.st5{fill:#DC2F44;}
	.st6{fill:#FE5957;}
	.st7{fill:#672214;}
	.st8{fill:#FCCA4C;}
	.st9{fill:#FDE5B4;}
	.st10{fill:#FDE6B4;}
	.st11{fill:#FDE6B5;}
</style>
<g>
	<path class="st0" d="M441.92,503.48c15.21,35.75,6.58,81.99-32.23,105.93c-22.64,13.97-47.64,20.98-73.54,25.47
		c-10.34,1.79-20.71,3.42-31.07,5.12c-50.73,0-101.46,0-152.19,0c-4.27-0.85-8.51-1.94-12.81-2.51
		c-29.19-3.87-57.75-9.86-83.96-24.06c-15.28-8.28-27.76-19.5-36.19-34.84c-6.91-12.57-9.18-26.26-9.66-40.41
		c-0.47-13.83,1.79-26.95,9.07-38.95c7.89,22.15,23.19,37.66,43.52,48.81c30.06,16.5,62.96,22.99,96.46,26.76
		c35.15,3.95,70.44,4.88,105.84,2.81c31.94-1.87,63.58-5.31,94.35-14.43c23.3-6.9,45.41-16.4,62.26-34.57
		c5.73-6.18,9.32-14.33,13.88-21.59C437.75,505.85,439.83,504.66,441.92,503.48z"/>
	<path class="st0" d="M250.04,94c-5.9-0.44-12.07,0.08-17.63-1.52c-12.94-3.73-18.73-20.29-9.89-30.27
		c7.03-7.94,15.7-15.08,24.93-20.33c30.07-17.12,63.15-25.99,96.95-32.15c31.05-5.66,62.46-8.31,94.02-7.61
		c50.08,1.11,99.16,8.48,146.1,26.62c12.02,4.64,23.39,11.07,34.74,17.26c9.46,5.16,17.24,12.36,22.16,22.21c0,3.83,0,7.66,0,11.49
		c-6.24,14.45-18.76,15.09-31.87,14.45c0.23-8.89-5.31-13.01-12.68-16.27c-52.23-23.1-107.26-32.96-163.99-33.66
		c-26.91-0.34-53.7,2.44-80.32,7.14c-31.96,5.63-62.65,14.9-92.24,28.14C253.62,82.49,250.41,87.01,250.04,94z"/>
	<path class="st1" d="M1.99,438.34c7.89-6.89,15.77-13.77,23.66-20.66c6.86,8.43,15.31,14.9,25.44,18.68
		c10.93,4.07,21.98,8.02,33.28,10.83c42.99,10.67,87,12.74,131,13.59c23.79,0.46,47.63-1.03,71.44-1.92
		c33.87-1.27,67.31-5.59,100.03-14.75c2.96,6.99,5.91,13.97,8.87,20.96c-2.54-0.19-5.07-0.53-7.61-0.54
		c-10.61-0.03-21.49-0.76-29.91,7.55c-3.3,3.26-6.17,6.99-9.03,10.67c-9.99,12.81-19.75,15.97-35.32,11.02
		c-3.42-1.09-6.65-2.81-9.94-4.27c-12.98-5.76-25.61-5.72-37.51,2.64c-6.08,4.27-11.85,8.98-17.79,13.45
		c-12.99,9.79-26.26,9.85-39.31,0.15c-3.58-2.66-7.05-5.47-10.57-8.2c-8.67-6.71-17.67-13.55-29.31-11.73
		c-8.03,1.26-15.76,4.61-23.54,7.28c-11.75,4.04-22.99,4.77-32.6-4.78c-2.99-2.97-5.47-6.48-8.08-9.82
		c-5.99-7.66-13.07-13.54-23.39-13.49c-7.58,0.04-15.2,0.22-22.73,1.02c-12.91,1.38-24.66,1.12-34.26-10.12
		c-3.74-4.38-10.82-5.94-16.37-8.78c-2.15-1.22-4.29-2.45-6.44-3.67C1.99,441.74,1.99,440.04,1.99,438.34z"/>
	<path class="st2" d="M250.04,94c0.37-7,3.58-11.52,10.28-14.52c29.59-13.24,60.28-22.51,92.24-28.14
		c26.62-4.69,53.4-7.47,80.32-7.14c56.74,0.71,111.76,10.56,163.99,33.66c7.37,3.26,12.92,7.38,12.68,16.27
		c-2.29,6.78-4.33,13.66-6.91,20.33c-6.87,17.76-13.98,35.42-20.99,53.13c-0.3-1.23-0.46-2.52-0.91-3.7
		c-14.18-36.83-63.16-48.19-91.94-18.36c-16.26,16.86-20.87,39.95-11.71,61.82c7.39,17.66,28.34,35.1,51.45,33.13
		c8.76-0.75,17.35-3.52,26.01-5.36c-9.04,23.09-18.08,46.17-27.11,69.26c-11.99-6.91-24.95-8.02-38.22-5.72
		c-25.33,4.4-46.82,29.65-44.97,58.74c1.45,22.82,19.95,45.94,42.42,50.35c-9.54,24.38-18.56,48.97-28.91,73
		c-3.58,8.3-10.47,15.18-15.85,22.71c-2.09,1.18-4.18,2.37-6.27,3.55c-5.95,2.39-11.66,1.16-15.85-3.07
		c-5.1-5.14-9.21-11.26-13.75-16.96c0.02-0.93,0.03-1.86,0.05-2.78c0.56-0.63,1.03-1.37,1.69-1.87
		c23.89-18.29,29.48-50.86,12.61-75.41c-13.61-19.82-32.99-26.96-56.44-24.43c-6-14.95-11.99-29.9-17.99-44.84
		c41.02,9.51,74.94-24.74,69.29-61.78c-3.71-24.33-20.04-42.16-45-47.56c-21.93-4.74-45.72,5.53-57.84,24.97
		c-5.1-13.21-10.19-26.42-15.29-39.64c13.73-12.77,21.17-27.87,19.67-47.23c-2.37-30.45-28.9-53.97-59.45-51.9
		C254.91,107.68,252.48,100.84,250.04,94z M401.4,170.46c31.21,0.2,56.99-24.46,57.03-54.94c0.04-31.35-23.7-57.1-56.21-57.18
		c-33.44-0.09-55.55,26.04-56.55,54.7C344.58,144.17,371.5,171.16,401.4,170.46z"/>
	<path class="st3" d="M554.56,235.13c-8.67,1.85-17.25,4.62-26.01,5.36c-23.12,1.97-44.06-15.47-51.45-33.13
		c-9.16-21.88-4.55-44.96,11.71-61.82c28.77-29.83,77.75-18.47,91.94,18.36c0.45,1.18,0.61,2.46,0.91,3.7
		C572.63,190.11,563.6,212.62,554.56,235.13z"/>
	<path class="st4" d="M486.69,407.77c-22.47-4.42-40.97-27.53-42.42-50.35c-1.85-29.09,19.63-54.34,44.97-58.74
		c13.27-2.3,26.23-1.2,38.22,5.72c-7.88,20.33-15.68,40.69-23.66,60.99C498.22,379.56,492.4,393.64,486.69,407.77z"/>
	<path class="st0" d="M345.97,337.66c6,14.95,11.99,29.9,17.99,44.84c3.79,10.43,7.58,20.87,11.37,31.31
		c-1.69,0.18-3.39,0.36-5.08,0.54c-22.77,2.44-45.53,6.69-68.33,6.96c-55.35,0.67-110.73-0.11-166.08-1.17
		c-15.39-0.3-30.83-3.05-46.06-5.72c-25.3-4.43-48.8-13.14-67.19-32.19c-1.27-2.42-2.57-4.83-3.82-7.26
		c-12.73-24.75-10.36-49.9-0.58-74.55c12.57-31.71,36.88-52.91,66.1-68.99c35.83-19.71,74.66-28.73,115.15-31.95
		c29.81-2.37,59.45-1.4,88.97,3.29c0.91,0.15,1.93-0.35,2.9-0.55c1.94,3.81,3.88,7.61,5.82,11.42c5.1,13.21,10.19,26.42,15.29,39.64
		c6.52,17.01,12.91,34.08,19.6,51.02C336.44,315.52,341.3,326.55,345.97,337.66z M211.93,273.71c-0.88,0.27-2.32,0.6-3.67,1.15
		c-8.56,3.55-15.21,19.95-10.75,28.26c1.27,2.36,6.35,5.04,8.32,4.23c6.11-2.48,12.12-5.94,17.11-10.24
		c4.11-3.54,5.33-9.23,2.6-14.54C222.88,277.43,218.58,274.17,211.93,273.71z M127.39,236.68c-4.17,0.76-8.83,2.71-11.2,8.31
		c-2.32,5.47-1.55,10.22,2.56,14.59c5.4,5.73,12.4,7.22,19.7,7.04c4.54-0.12,9.7-0.81,10.55-7
		C150.21,250.91,137.64,236.75,127.39,236.68z M162.55,370.57c9.95-1.07,14.1-4.74,11.78-12.16c-2.23-7.15-6.38-13.4-13.44-16.94
		c-6.77-3.39-14.86-1-18.23,5.17c-3.6,6.61-1.54,15.33,5.17,18.78C152.41,367.78,157.63,368.9,162.55,370.57z M264.78,225.14
		c-7.46,0.95-13.96,6.19-19.06,13.74c-3.17,4.7-1.52,8.43,2.69,10.59c8.03,4.13,16.6,5.27,25.02,0.97c5.09-2.6,7.78-9.39,6.36-14.6
		C277.85,228.71,273.53,225.18,264.78,225.14z M71.45,286.83c-2.87,1.11-6.26,1.6-8.53,3.45c-6.64,5.41-9.15,13.19-9.53,21.36
		c-0.23,4.98,2.72,8.4,8.43,8.02c8.77-0.57,16.38-4.17,20.77-11.58c2-3.37,1.88-9.11,0.54-13.03
		C81.59,290.59,77.62,286.95,71.45,286.83z M305.08,370.62c10.42-1.13,14.38-4.62,11.05-12.39c-2.61-6.1-7.37-11.92-12.58-16.12
		c-5.79-4.67-14.29-2.14-17.88,3.6c-4.37,6.97-2.95,15.31,4.18,19.33C294.5,367.65,299.98,368.81,305.08,370.62z"/>
	<path class="st5" d="M22.58,382.24c18.39,19.05,41.89,27.76,67.19,32.19c15.23,2.67,30.67,5.42,46.06,5.72
		c55.35,1.07,110.73,1.85,166.08,1.17c22.8-0.28,45.55-4.52,68.33-6.96c1.69-0.18,3.39-0.36,5.08-0.54
		c3.84,10.1,7.67,20.2,11.51,30.29c-32.71,9.15-66.16,13.47-100.03,14.75c-23.81,0.9-47.65,2.38-71.44,1.92
		c-44-0.85-88.01-2.92-131-13.59c-11.3-2.81-22.36-6.75-33.28-10.83c-10.13-3.78-18.58-10.25-25.44-18.68
		C19.2,406.34,22.32,394.17,22.58,382.24z"/>
	<path class="st6" d="M297.13,213.66c-1.94-3.81-3.88-7.62-5.82-11.42c-10.52-26.83-21.04-53.66-31.53-80.51
		c-0.92-2.36-1.62-4.81-2.43-7.21c30.55-2.07,57.09,21.46,59.45,51.91C318.3,185.78,310.86,200.89,297.13,213.66z"/>
	<path class="st7" d="M406.05,487.01c4.54,5.7,8.65,11.81,13.75,16.96c4.19,4.23,9.9,5.45,15.85,3.07
		c-4.56,7.25-8.15,15.41-13.88,21.59c-16.85,18.17-38.96,27.67-62.26,34.57c-30.77,9.12-62.4,12.56-94.35,14.43
		c-35.39,2.07-70.68,1.15-105.84-2.81c-33.5-3.77-66.4-10.26-96.46-26.76c-20.33-11.16-35.63-26.66-43.52-48.81
		c-1.11-8.46-2.23-16.92-3.34-25.37c19.85,6.28,39.9,11.99,59.52,18.93c49.1,17.38,97.96,35.42,147.05,52.82
		c4.25,1.51,9.57,0.82,14.22,0.08c3.43-0.55,6.49-3.09,9.87-4.32c50.99-18.41,102-36.78,153.06-54.99
		C401.53,485.74,403.93,486.76,406.05,487.01z"/>
	<path class="st8" d="M406.05,487.01c-2.12-0.24-4.52-1.26-6.33-0.62c-51.06,18.21-102.07,36.58-153.06,54.99
		c-3.38,1.22-6.44,3.77-9.87,4.32c-4.65,0.74-9.97,1.42-14.22-0.08c-49.09-17.4-97.95-35.44-147.05-52.82
		c-19.61-6.94-39.67-12.66-59.52-18.93c-11.84-5.68-14.05-13.5-7.58-26.74c5.56,2.84,12.63,4.39,16.37,8.78
		c9.6,11.24,21.35,11.5,34.26,10.12c7.53-0.8,15.15-0.98,22.73-1.02c10.32-0.05,17.4,5.84,23.39,13.49
		c2.61,3.34,5.09,6.85,8.08,9.82c9.61,9.55,20.85,8.82,32.6,4.78c7.78-2.67,15.51-6.02,23.54-7.28
		c11.64-1.83,20.64,5.02,29.31,11.73c3.53,2.73,6.99,5.54,10.57,8.2c13.05,9.7,26.32,9.63,39.31-0.15
		c5.94-4.47,11.71-9.18,17.79-13.45c11.91-8.36,24.54-8.4,37.51-2.64c3.3,1.46,6.52,3.18,9.94,4.27
		c15.57,4.95,25.33,1.79,35.32-11.02c2.86-3.67,5.73-7.4,9.03-10.67c8.41-8.31,19.3-7.58,29.91-7.55c2.54,0.01,5.07,0.35,7.61,0.54
		c1.68,4.06,3.12,8.24,5.13,12.12c1.33,2.56,3.48,4.7,5.26,7.03C406.08,485.15,406.07,486.08,406.05,487.01z"/>
	<path class="st4" d="M406.1,484.22c-1.78-2.33-3.94-4.47-5.26-7.03c-2.01-3.89-3.45-8.07-5.13-12.12
		c-2.96-6.99-5.91-13.97-8.87-20.96c-3.84-10.1-7.67-20.2-11.51-30.3c-3.79-10.44-7.58-20.88-11.37-31.31
		c23.45-2.52,42.82,4.62,56.44,24.43c16.87,24.55,11.28,57.13-12.61,75.41C407.13,482.86,406.66,483.6,406.1,484.22z"/>
	<path class="st3" d="M401.4,170.46c-29.9,0.7-56.82-26.29-55.73-57.42c1-28.66,23.11-54.79,56.55-54.7
		c32.51,0.09,56.25,25.83,56.21,57.18C458.39,146,432.61,170.66,401.4,170.46z"/>
	<path class="st3" d="M345.97,337.66c-4.66-11.11-9.52-22.14-13.95-33.35c-6.69-16.95-13.08-34.01-19.6-51.02
		c12.11-19.44,35.91-29.71,57.83-24.97c24.96,5.4,41.29,23.23,45,47.56C420.9,312.92,386.98,347.17,345.97,337.66z"/>
	<path class="st9" d="M211.93,273.71c6.65,0.46,10.96,3.72,13.61,8.87c2.73,5.31,1.51,11-2.6,14.54c-4.99,4.3-11,7.75-17.11,10.24
		c-1.97,0.8-7.05-1.87-8.32-4.23c-4.46-8.31,2.19-24.71,10.75-28.26C209.6,274.31,211.05,273.99,211.93,273.71z"/>
	<path class="st10" d="M127.39,236.68c10.24,0.07,22.82,14.24,21.62,22.94c-0.85,6.18-6.01,6.88-10.55,7
		c-7.3,0.19-14.3-1.31-19.7-7.04c-4.12-4.37-4.88-9.12-2.56-14.59C118.56,239.39,123.23,237.44,127.39,236.68z"/>
	<path class="st10" d="M162.55,370.57c-4.93-1.67-10.14-2.79-14.71-5.14c-6.71-3.45-8.77-12.18-5.17-18.78
		c3.36-6.17,11.46-8.56,18.23-5.17c7.06,3.54,11.21,9.78,13.44,16.94C176.65,365.83,172.5,369.5,162.55,370.57z"/>
	<path class="st9" d="M264.78,225.14c8.75,0.04,13.07,3.57,15.01,10.7c1.42,5.22-1.27,12-6.36,14.6c-8.42,4.3-16.98,3.16-25.02-0.97
		c-4.21-2.16-5.86-5.89-2.69-10.59C250.82,231.33,257.32,226.09,264.78,225.14z"/>
	<path class="st10" d="M71.45,286.83c6.17,0.12,10.14,3.75,11.68,8.23c1.34,3.92,1.46,9.66-0.54,13.03
		c-4.39,7.41-12,11.01-20.77,11.58c-5.71,0.37-8.66-3.04-8.43-8.02c0.38-8.17,2.9-15.94,9.53-21.36
		C65.19,288.44,68.57,287.95,71.45,286.83z"/>
	<path class="st11" d="M305.08,370.62c-5.1-1.81-10.58-2.96-15.23-5.58c-7.13-4.01-8.55-12.36-4.18-19.33
		c3.6-5.74,12.09-8.26,17.88-3.6c5.21,4.2,9.96,10.02,12.58,16.12C319.46,366,315.5,369.49,305.08,370.62z"/>
</g>
</svg>
